# xmcd
#
# Track frame offsets: 
#        150
#        915
#        23509
#        59537
#        77638
#        100574
#        127699
#        149389
#        174738
#        194177
#        218106
#
# Disc length: 3223 seconds
#
# Revision: 0
# Processed by: cddbd v1.5.2PL0 Copyright (c) Steve Scherf et al.
# Submitted via: ExactAudioCopy v0.99pb3
#
DISCID=890c950b
DTITLE=Joey Gilmore - Bluesman
DYEAR=2008
DGENRE=Blues
TTITLE0=Intro
TTITLE1=Blues All Over You
TTITLE2=Bit Off More Than I Could Chew
TTITLE3=You Put The Rush On Me
TTITLE4=Things I Used To Do
TTITLE5=White Shoes
TTITLE6=Wishing Well
TTITLE7=Last Two Dollars
TTITLE8=I Got The Blues
TTITLE9=How Blue Can You Get
TTITLE10=Ghosts Of Mississippi
EXTD=
EXTT0=
EXTT1=
EXTT2=
EXTT3=
EXTT4=
EXTT5=
EXTT6=
EXTT7=
EXTT8=
EXTT9=
EXTT10=
PLAYORDER=
